<?xml version="1.0" encoding="UTF-8"?>
<svg width="34px" height="33px" viewBox="0 0 34 33" version="1.1" xmlns="http://www.w3.org/2000/svg" xmlns:xlink="http://www.w3.org/1999/xlink">
    <!-- Generator: Sketch 54.1 (76490) - https://sketchapp.com -->
    <title>Path</title>
    <desc>Created with Sketch.</desc>
    <g id="Page-1" stroke="none" stroke-width="1" fill="none" fill-rule="evenodd">
        <g id="Icons" transform="translate(-551.000000, -823.000000)" fill="#C2C7CC" fill-rule="nonzero">
            <g id="2b50" transform="translate(551.000000, 823.000000)">
                <path d="M26.287,32.627 C25.883,32.627 25.481,32.503 25.135,32.256 L17,26.422 L8.865,32.256 C8.172,32.752 7.242,32.752 6.553,32.248 C5.864,31.749 5.574,30.863 5.832,30.054 L8.866,20.262 L0.804,14.581 C0.119,14.076 -0.166,13.188 0.096,12.378 C0.36,11.57 1.112,11.021 1.962,11.015 L11.947,11 L15.126,1.451 C15.394,0.642 16.149,0.098 17,0.098 C17.851,0.098 18.606,0.643 18.875,1.451 L22,11 L32.036,11.015 C32.889,11.021 33.642,11.571 33.903,12.378 C34.166,13.188 33.881,14.076 33.195,14.581 L25.133,20.262 L28.167,30.054 C28.427,30.863 28.134,31.749 27.447,32.248 C27.1,32.502 26.694,32.627 26.287,32.627 Z" id="Path"></path>
            </g>
        </g>
    </g>
</svg>