<svg width="56" height="56" viewBox="0 0 56 56" fill="none" xmlns="http://www.w3.org/2000/svg">
<path d="M36.101 18.5895C37.8961 19.3487 39.5563 20.3461 41.0621 21.5622V12.9656C41.0621 5.81684 35.2452 0 28.0964 0H27.897C20.7546 0 14.9377 5.81684 14.9377 12.9656V21.5622C16.4434 20.3462 18.1035 19.3488 19.8988 18.5895C20.3814 18.3835 20.8768 18.1969 21.3723 18.0296V12.9656C21.3723 9.36229 24.3 6.43456 27.9034 6.43456H28.1029C31.7062 6.43456 34.6339 9.36229 34.6339 12.9656V18.0361C35.1229 18.1969 35.6184 18.3835 36.101 18.5895Z" fill="#181818"/>
<path d="M9.7644 37.7645C9.7644 47.8345 17.9299 55.9999 28 55.9999C38.07 55.9999 46.2356 47.8409 46.2356 37.7645C46.2356 32.8163 44.2601 28.3249 41.0622 25.0368C39.2605 23.1902 37.0728 21.723 34.6276 20.7643C32.575 19.96 30.3357 19.5225 28 19.5225C25.6643 19.5225 23.425 19.96 21.3724 20.7643C18.9273 21.7166 16.7395 23.1837 14.9379 25.0368C11.7334 28.3249 9.7644 32.8163 9.7644 37.7645ZM23.3027 34.0839C23.367 31.5937 25.3939 29.5668 27.8841 29.5088C30.5286 29.4445 32.6971 31.5744 32.6971 34.2061C32.6971 34.4828 32.6714 34.753 32.6263 35.0104C32.3946 36.3423 31.6032 37.4877 30.4964 38.1827C30.0395 38.4723 29.8079 39.0127 29.9238 39.534L31.3202 46.1551C31.4039 46.5541 31.1014 46.9338 30.6895 46.9338H25.3103C24.8985 46.9338 24.596 46.5605 24.6797 46.1551L26.076 39.534C26.1853 39.0063 25.9601 38.4658 25.5033 38.1762C24.3966 37.4813 23.6051 36.3423 23.3734 35.004C23.322 34.708 23.2963 34.3992 23.3027 34.0839Z" fill="#181818"/>
</svg>
