<svg width="18" height="18" viewBox="0 0 18 18" fill="none" xmlns="http://www.w3.org/2000/svg">
<path d="M17.3299 0.670004C17.1407 0.482171 16.9034 0.350125 16.6441 0.288378C16.3847 0.226632 16.1134 0.237574 15.8599 0.320004L1.22988 5.2C0.958551 5.28598 0.718786 5.45043 0.540867 5.6726C0.362949 5.89476 0.254858 6.16467 0.230248 6.44822C0.205637 6.73178 0.26561 7.01628 0.402592 7.26577C0.539574 7.51526 0.747421 7.71857 0.99988 7.85L7.06988 10.85L10.0699 16.94C10.1905 17.1784 10.375 17.3785 10.6028 17.518C10.8306 17.6575 11.0927 17.7309 11.3599 17.73H11.4599C11.746 17.7089 12.0191 17.6023 12.2438 17.424C12.4685 17.2456 12.6344 17.0038 12.7199 16.73L17.6699 2.14C17.7583 1.88794 17.7732 1.61595 17.713 1.3557C17.6529 1.09546 17.52 0.857661 17.3299 0.670004ZM1.84988 6.58L14.6199 2.32L7.52988 9.41L1.84988 6.58ZM11.4299 16.15L8.58988 10.47L15.6799 3.38L11.4299 16.15Z" fill="#7F7F81"/>
</svg>
