<svg width="30" height="29" viewBox="0 0 30 29" fill="none" xmlns="http://www.w3.org/2000/svg">
<path fill-rule="evenodd" clip-rule="evenodd" d="M13.1494 2.31915C12.1918 2.31915 11.3771 2.98461 11.1484 3.88153H18.838C18.6093 2.98461 17.7946 2.31915 16.837 2.31915H13.1494ZM21.0097 3.8814H23.8397C26.8412 3.8814 29.2853 6.35516 29.2853 9.39312C29.2853 9.39312 29.1995 10.6792 29.171 12.4701C29.1681 12.6119 29.0995 12.7508 28.9866 12.8347C28.2991 13.3425 27.6702 13.762 27.613 13.7909C25.2404 15.3822 22.4833 16.5019 19.5461 17.0589C19.3546 17.0965 19.166 16.9967 19.0688 16.826C18.2455 15.3996 16.7076 14.4709 14.9924 14.4709C13.2887 14.4709 11.7365 15.3895 10.889 16.8173C10.7903 16.9851 10.6045 17.0821 10.4144 17.0459C7.50155 16.4875 4.74445 15.3692 2.38613 13.8054L1.01402 12.8506C0.899674 12.7783 0.82821 12.6481 0.82821 12.5034C0.785331 11.7656 0.713867 9.39312 0.713867 9.39312C0.713867 6.35516 3.15795 3.8814 6.15945 3.8814H8.97514C9.24671 1.78376 11.0047 0.149048 13.1487 0.149048H16.8362C18.9801 0.149048 20.7382 1.78376 21.0097 3.8814ZM28.8009 15.5996L28.7438 15.6285C25.8566 17.567 22.3834 18.8546 18.7388 19.3898C18.2242 19.4621 17.7097 19.1294 17.5668 18.6086C17.2523 17.4224 16.2375 16.6412 15.0226 16.6412H15.0083H14.9797C13.7649 16.6412 12.7501 17.4224 12.4356 18.6086C12.2927 19.1294 11.7781 19.4621 11.2636 19.3898C7.61892 18.8546 4.14576 17.567 1.2586 15.6285C1.24431 15.6141 1.10138 15.5273 0.987034 15.5996C0.858398 15.6719 0.858398 15.8455 0.858398 15.8455L0.958448 23.2234C0.958448 26.2614 3.38823 28.7207 6.38974 28.7207H23.5983C26.5998 28.7207 29.0296 26.2614 29.0296 23.2234L29.144 15.8455C29.144 15.8455 29.144 15.6719 29.0153 15.5996C28.9439 15.5562 28.8581 15.5707 28.8009 15.5996ZM16.0663 21.6611C16.0663 22.2687 15.5946 22.746 14.9943 22.746C14.4083 22.746 13.9224 22.2687 13.9224 21.6611V19.7949C13.9224 19.2018 14.4083 18.7099 14.9943 18.7099C15.5946 18.7099 16.0663 19.2018 16.0663 19.7949V21.6611Z" fill="white"/>
</svg>
