<svg width="20" height="20" viewBox="0 0 20 20" fill="none" xmlns="http://www.w3.org/2000/svg">
<mask id="path-1-inside-1_3502_2011" fill="white">
<path d="M12.9883 11.748C13.8737 12.054 14.6712 12.4805 15.3809 13.0273C16.0905 13.5742 16.696 14.2122 17.1973 14.9414C17.6986 15.6706 18.0827 16.4616 18.3496 17.3145C18.6165 18.1673 18.75 19.0625 18.75 20H17.5C17.5 18.9323 17.3112 17.9427 16.9336 17.0312C16.556 16.1198 16.0286 15.3255 15.3516 14.6484C14.6745 13.9714 13.8835 13.4473 12.9785 13.0762C12.0736 12.7051 11.0807 12.513 10 12.5C9.30339 12.5 8.63281 12.5879 7.98828 12.7637C7.34375 12.9395 6.74479 13.1868 6.19141 13.5059C5.63802 13.8249 5.13346 14.2122 4.67773 14.668C4.22201 15.1237 3.83464 15.6283 3.51562 16.1816C3.19661 16.735 2.94596 17.3372 2.76367 17.9883C2.58138 18.6393 2.49349 19.3099 2.5 20H1.25C1.25 19.0625 1.38672 18.1673 1.66016 17.3145C1.93359 16.4616 2.32096 15.6738 2.82227 14.9512C3.32357 14.2285 3.92904 13.597 4.63867 13.0566C5.34831 12.5163 6.14583 12.0833 7.03125 11.7578C6.52344 11.4844 6.06771 11.1523 5.66406 10.7617C5.26042 10.3711 4.91862 9.93815 4.63867 9.46289C4.35872 8.98763 4.14062 8.47656 3.98438 7.92969C3.82812 7.38281 3.75 6.82292 3.75 6.25C3.75 5.38411 3.91276 4.57357 4.23828 3.81836C4.5638 3.06315 5.00977 2.39909 5.57617 1.82617C6.14258 1.25326 6.80339 0.807292 7.55859 0.488281C8.3138 0.169271 9.1276 0.00651042 10 0C10.8659 0 11.6764 0.16276 12.4316 0.488281C13.1868 0.813802 13.8509 1.25977 14.4238 1.82617C14.9967 2.39258 15.4427 3.05339 15.7617 3.80859C16.0807 4.5638 16.2435 5.3776 16.25 6.25C16.25 6.82292 16.1751 7.37956 16.0254 7.91992C15.8757 8.46029 15.6576 8.9681 15.3711 9.44336C15.0846 9.91862 14.7428 10.3516 14.3457 10.7422C13.9486 11.1328 13.4961 11.4681 12.9883 11.748ZM5 6.25C5 6.9401 5.13021 7.58789 5.39062 8.19336C5.65104 8.79883 6.00911 9.32617 6.46484 9.77539C6.92057 10.2246 7.45117 10.5827 8.05664 10.8496C8.66211 11.1165 9.3099 11.25 10 11.25C10.6901 11.25 11.3379 11.1198 11.9434 10.8594C12.5488 10.599 13.0762 10.2409 13.5254 9.78516C13.9746 9.32943 14.3327 8.79883 14.5996 8.19336C14.8665 7.58789 15 6.9401 15 6.25C15 5.5599 14.8698 4.91211 14.6094 4.30664C14.349 3.70117 13.9909 3.17383 13.5352 2.72461C13.0794 2.27539 12.5488 1.91732 11.9434 1.65039C11.3379 1.38346 10.6901 1.25 10 1.25C9.3099 1.25 8.66211 1.38021 8.05664 1.64062C7.45117 1.90104 6.92383 2.25911 6.47461 2.71484C6.02539 3.17057 5.66732 3.70117 5.40039 4.30664C5.13346 4.91211 5 5.5599 5 6.25Z"/>
</mask>
<path d="M12.9883 11.748C13.8737 12.054 14.6712 12.4805 15.3809 13.0273C16.0905 13.5742 16.696 14.2122 17.1973 14.9414C17.6986 15.6706 18.0827 16.4616 18.3496 17.3145C18.6165 18.1673 18.75 19.0625 18.75 20H17.5C17.5 18.9323 17.3112 17.9427 16.9336 17.0312C16.556 16.1198 16.0286 15.3255 15.3516 14.6484C14.6745 13.9714 13.8835 13.4473 12.9785 13.0762C12.0736 12.7051 11.0807 12.513 10 12.5C9.30339 12.5 8.63281 12.5879 7.98828 12.7637C7.34375 12.9395 6.74479 13.1868 6.19141 13.5059C5.63802 13.8249 5.13346 14.2122 4.67773 14.668C4.22201 15.1237 3.83464 15.6283 3.51562 16.1816C3.19661 16.735 2.94596 17.3372 2.76367 17.9883C2.58138 18.6393 2.49349 19.3099 2.5 20H1.25C1.25 19.0625 1.38672 18.1673 1.66016 17.3145C1.93359 16.4616 2.32096 15.6738 2.82227 14.9512C3.32357 14.2285 3.92904 13.597 4.63867 13.0566C5.34831 12.5163 6.14583 12.0833 7.03125 11.7578C6.52344 11.4844 6.06771 11.1523 5.66406 10.7617C5.26042 10.3711 4.91862 9.93815 4.63867 9.46289C4.35872 8.98763 4.14062 8.47656 3.98438 7.92969C3.82812 7.38281 3.75 6.82292 3.75 6.25C3.75 5.38411 3.91276 4.57357 4.23828 3.81836C4.5638 3.06315 5.00977 2.39909 5.57617 1.82617C6.14258 1.25326 6.80339 0.807292 7.55859 0.488281C8.3138 0.169271 9.1276 0.00651042 10 0C10.8659 0 11.6764 0.16276 12.4316 0.488281C13.1868 0.813802 13.8509 1.25977 14.4238 1.82617C14.9967 2.39258 15.4427 3.05339 15.7617 3.80859C16.0807 4.5638 16.2435 5.3776 16.25 6.25C16.25 6.82292 16.1751 7.37956 16.0254 7.91992C15.8757 8.46029 15.6576 8.9681 15.3711 9.44336C15.0846 9.91862 14.7428 10.3516 14.3457 10.7422C13.9486 11.1328 13.4961 11.4681 12.9883 11.748ZM5 6.25C5 6.9401 5.13021 7.58789 5.39062 8.19336C5.65104 8.79883 6.00911 9.32617 6.46484 9.77539C6.92057 10.2246 7.45117 10.5827 8.05664 10.8496C8.66211 11.1165 9.3099 11.25 10 11.25C10.6901 11.25 11.3379 11.1198 11.9434 10.8594C12.5488 10.599 13.0762 10.2409 13.5254 9.78516C13.9746 9.32943 14.3327 8.79883 14.5996 8.19336C14.8665 7.58789 15 6.9401 15 6.25C15 5.5599 14.8698 4.91211 14.6094 4.30664C14.349 3.70117 13.9909 3.17383 13.5352 2.72461C13.0794 2.27539 12.5488 1.91732 11.9434 1.65039C11.3379 1.38346 10.6901 1.25 10 1.25C9.3099 1.25 8.66211 1.38021 8.05664 1.64062C7.45117 1.90104 6.92383 2.25911 6.47461 2.71484C6.02539 3.17057 5.66732 3.70117 5.40039 4.30664C5.13346 4.91211 5 5.5599 5 6.25Z" fill="#7F7F81"/>
<path d="M12.9883 11.748L11.4434 8.94567L5.13904 12.4211L11.9431 14.7725L12.9883 11.748ZM18.75 20V23.2H21.95V20H18.75ZM17.5 20H14.3V23.2H17.5V20ZM10 12.5L10.0386 9.30023L10.0193 9.3H10V12.5ZM2.5 20V23.2H5.73033L5.69986 19.9698L2.5 20ZM1.25 20H-1.95V23.2H1.25V20ZM7.03125 11.7578L8.13546 14.7613L14.805 12.3092L8.54837 8.9403L7.03125 11.7578ZM10 0V-3.2H9.98806L9.97612 -3.19991L10 0ZM16.25 6.25H19.45V6.23806L19.4499 6.22612L16.25 6.25ZM11.9431 14.7725C12.5163 14.9706 13.0045 15.236 13.4275 15.562L17.3342 10.4927C16.338 9.72497 15.2311 9.13743 14.0335 8.72356L11.9431 14.7725ZM13.4275 15.562C13.8764 15.908 14.2503 16.3033 14.5603 16.7543L19.8342 13.1285C19.1416 12.1212 18.3045 11.2405 17.3342 10.4927L13.4275 15.562ZM14.5603 16.7543C14.8788 17.2175 15.1232 17.7192 15.2957 18.2703L21.4035 16.3586C21.0421 15.2039 20.5183 14.1236 19.8342 13.1285L14.5603 16.7543ZM15.2957 18.2703C15.4611 18.7989 15.55 19.3707 15.55 20H21.95C21.95 18.7543 21.7719 17.5358 21.4035 16.3586L15.2957 18.2703ZM18.75 16.8H17.5V23.2H18.75V16.8ZM20.7 20C20.7 18.5468 20.4412 17.1372 19.8899 15.8065L13.9773 18.256C14.1812 18.7482 14.3 19.3177 14.3 20H20.7ZM19.8899 15.8065C19.3565 14.5189 18.5976 13.3689 17.6143 12.3857L13.0888 16.9112C13.4597 17.2821 13.7555 17.7207 13.9773 18.256L19.8899 15.8065ZM17.6143 12.3857C16.6309 11.4022 15.4813 10.6439 14.1926 10.1154L11.7644 16.0369C12.2856 16.2506 12.7181 16.5405 13.0888 16.9112L17.6143 12.3857ZM14.1926 10.1154C12.8771 9.57598 11.4803 9.3176 10.0386 9.30023L9.96145 15.6998C10.6811 15.7084 11.27 15.8342 11.7644 16.0369L14.1926 10.1154ZM10 9.3C9.03115 9.3 8.07675 9.42267 7.14631 9.67643L8.83026 15.8509C9.18888 15.7531 9.57562 15.7 10 15.7V9.3ZM7.14631 9.67643C6.24941 9.92103 5.39482 10.2714 4.59324 10.7335L7.78958 16.2782C8.09476 16.1023 8.43809 15.9579 8.83026 15.8509L7.14631 9.67643ZM4.59324 10.7335C3.79476 11.1938 3.06716 11.7531 2.41499 12.4052L6.94048 16.9307C7.19976 16.6714 7.48128 16.4559 7.78958 16.2782L4.59324 10.7335ZM2.41499 12.4052C1.76282 13.0574 1.20359 13.785 0.743288 14.5835L6.28796 17.7798C6.46569 17.4715 6.68119 17.19 6.94048 16.9307L2.41499 12.4052ZM0.743288 14.5835C0.28341 15.3812 -0.0677404 16.2323 -0.317813 17.1255L5.84516 18.8511C5.95967 18.4421 6.10982 18.0888 6.28796 17.7798L0.743288 14.5835ZM-0.317813 17.1255C-0.583162 18.0731 -0.709155 19.0447 -0.699858 20.0302L5.69986 19.9698C5.69613 19.5751 5.74592 19.2055 5.84516 18.8511L-0.317813 17.1255ZM2.5 16.8H1.25V23.2H2.5V16.8ZM4.45 20C4.45 19.3785 4.53983 18.814 4.70737 18.2914L-1.38706 16.3375C-1.76639 17.5206 -1.95 18.7465 -1.95 20H4.45ZM4.70737 18.2914C4.88596 17.7344 5.13402 17.2329 5.45157 16.7751L0.192957 13.1272C-0.492088 14.1148 -1.01877 15.1888 -1.38706 16.3375L4.70737 18.2914ZM5.45157 16.7751C5.75915 16.3317 6.13045 15.9428 6.57731 15.6026L2.70004 10.5107C1.72762 11.2512 0.887985 12.1253 0.192957 13.1272L5.45157 16.7751ZM6.57731 15.6026C7.0189 15.2663 7.53214 14.9831 8.13546 14.7613L5.92704 8.75436C4.75953 9.18359 3.67771 9.76626 2.70004 10.5107L6.57731 15.6026ZM8.54837 8.9403C8.29232 8.80243 8.07626 8.64301 7.88941 8.46219L3.43871 13.0612C4.05915 13.6617 4.75456 14.1663 5.51413 14.5753L8.54837 8.9403ZM7.88941 8.46219C7.6888 8.26805 7.52705 8.06145 7.39589 7.83878L1.88145 11.087C2.31019 11.8149 2.83204 12.4741 3.43871 13.0612L7.88941 8.46219ZM7.39589 7.83878C7.25789 7.6045 7.14529 7.34473 7.06125 7.05058L0.907498 8.80879C1.13596 9.60839 1.45956 10.3708 1.88145 11.087L7.39589 7.83878ZM7.06125 7.05058C6.98729 6.79171 6.95 6.52779 6.95 6.25H0.55C0.55 7.11805 0.668962 7.97392 0.907498 8.80879L7.06125 7.05058ZM6.95 6.25C6.95 5.79626 7.03288 5.41919 7.17692 5.08501L1.29964 2.55171C0.792646 3.72794 0.55 4.97197 0.55 6.25H6.95ZM7.17692 5.08501C7.34797 4.68818 7.57161 4.35937 7.85181 4.07595L3.30054 -0.423603C2.44792 0.43881 1.77964 1.43812 1.29964 2.55171L7.17692 5.08501ZM7.85181 4.07595C8.11846 3.80623 8.42747 3.59504 8.80378 3.43608L6.3134 -2.45952C5.1793 -1.98046 4.1667 -1.29972 3.30054 -0.423603L7.85181 4.07595ZM8.80378 3.43608C9.148 3.29067 9.5439 3.20349 10.0239 3.19991L9.97612 -3.19991C8.7113 -3.19047 7.4796 -2.95213 6.3134 -2.45952L8.80378 3.43608ZM10 3.2C10.4537 3.2 10.8308 3.28288 11.165 3.42692L13.6983 -2.45036C12.5221 -2.95735 11.278 -3.2 10 -3.2V3.2ZM11.165 3.42692C11.5618 3.59797 11.8906 3.82161 12.1741 4.10181L16.6736 -0.449463C15.8112 -1.30208 14.8119 -1.97036 13.6983 -2.45036L11.165 3.42692ZM12.1741 4.10181C12.4438 4.36846 12.655 4.67747 12.8139 5.05378L18.7095 2.5634C18.2305 1.4293 17.5497 0.416699 16.6736 -0.449463L12.1741 4.10181ZM12.8139 5.05378C12.9593 5.398 13.0465 5.7939 13.0501 6.27388L19.4499 6.22612C19.4405 4.9613 19.2021 3.7296 18.7095 2.5634L12.8139 5.05378ZM13.05 6.25C13.05 6.54046 13.0125 6.80935 12.9416 7.06538L19.1092 8.77447C19.3377 7.94977 19.45 7.10537 19.45 6.25H13.05ZM12.9416 7.06538C12.8687 7.32857 12.7652 7.56779 12.6304 7.79146L18.1118 11.0953C18.5499 10.3684 18.8826 9.592 19.1092 8.77447L12.9416 7.06538ZM12.6304 7.79146C12.483 8.03601 12.3083 8.25763 12.1017 8.46082L16.5897 13.0236C17.1774 12.4455 17.6862 11.8012 18.1118 11.0953L12.6304 7.79146ZM12.1017 8.46082C11.9212 8.63845 11.706 8.80089 11.4434 8.94567L14.5332 14.5504C15.2862 14.1353 15.976 13.6272 16.5897 13.0236L12.1017 8.46082ZM1.8 6.25C1.8 7.35401 2.01075 8.43414 2.451 9.45772L8.33025 6.929C8.24967 6.74164 8.2 6.52619 8.2 6.25H1.8ZM2.451 9.45772C2.86977 10.4314 3.45938 11.3061 4.21844 12.0544L8.71125 7.49643C8.55885 7.34621 8.43231 7.16629 8.33025 6.929L2.451 9.45772ZM4.21844 12.0544C4.96007 12.7854 5.81734 13.3596 6.76577 13.7777L9.34751 7.92153C9.085 7.8058 8.88107 7.66383 8.71125 7.49643L4.21844 12.0544ZM6.76577 13.7777C7.79545 14.2316 8.88489 14.45 10 14.45V8.05C9.7349 8.05 9.52877 8.00144 9.34751 7.92153L6.76577 13.7777ZM10 14.45C11.104 14.45 12.1841 14.2393 13.2077 13.799L10.679 7.91975C10.4916 8.00033 10.2762 8.05 10 8.05V14.45ZM13.2077 13.799C14.1814 13.3802 15.0561 12.7906 15.8044 12.0316L11.2464 7.53875C11.0962 7.69115 10.9163 7.81769 10.679 7.91975L13.2077 13.799ZM15.8044 12.0316C16.5354 11.2899 17.1096 10.4327 17.5277 9.48423L11.6715 6.90249C11.5558 7.165 11.4138 7.36893 11.2464 7.53875L15.8044 12.0316ZM17.5277 9.48423C17.9816 8.45455 18.2 7.36511 18.2 6.25H11.8C11.8 6.5151 11.7514 6.72123 11.6715 6.90249L17.5277 9.48423ZM18.2 6.25C18.2 5.14599 17.9893 4.06586 17.549 3.04228L11.6697 5.571C11.7503 5.75836 11.8 5.97381 11.8 6.25H18.2ZM17.549 3.04228C17.1302 2.06863 16.5406 1.19386 15.7816 0.445648L11.2888 5.00357C11.4412 5.15379 11.5677 5.33371 11.6697 5.571L17.549 3.04228ZM15.7816 0.445648C15.0399 -0.285392 14.1827 -0.859565 13.2342 -1.27769L10.6525 4.57847C10.915 4.6942 11.1189 4.83617 11.2888 5.00357L15.7816 0.445648ZM13.2342 -1.27769C12.2046 -1.73163 11.1151 -1.95 10 -1.95V4.45C10.2651 4.45 10.4712 4.49856 10.6525 4.57847L13.2342 -1.27769ZM10 -1.95C8.89599 -1.95 7.81586 -1.73925 6.79228 -1.299L9.321 4.58025C9.50836 4.49967 9.72381 4.45 10 4.45V-1.95ZM6.79228 -1.299C5.81863 -0.880226 4.94386 -0.29062 4.19565 0.468439L8.75357 4.96125C8.90379 4.80885 9.08371 4.68231 9.321 4.58025L6.79228 -1.299ZM4.19565 0.468439C3.46461 1.21007 2.89043 2.06734 2.47231 3.01577L8.32847 5.59751C8.4442 5.335 8.58617 5.13107 8.75357 4.96125L4.19565 0.468439ZM2.47231 3.01577C2.01837 4.04545 1.8 5.13489 1.8 6.25H8.2C8.2 5.9849 8.24856 5.77877 8.32847 5.59751L2.47231 3.01577Z" fill="#7F7F81" mask="url(#path-1-inside-1_3502_2011)"/>
</svg>
