<svg width="56" height="56" viewBox="0 0 56 56" fill="none" xmlns="http://www.w3.org/2000/svg">
<rect width="56" height="56" fill="#384858"/>
<rect width="56" height="56" rx="28" fill="#384858"/>
<path fill-rule="evenodd" clip-rule="evenodd" d="M19.0002 20C19.0002 15.0294 23.0296 11 28.0002 11C32.9707 11 37.0002 15.0294 37.0002 20C37.0002 24.9706 32.9707 29 28.0002 29C23.0296 29 19.0002 24.9706 19.0002 20Z" fill="#657686"/>
<path fill-rule="evenodd" clip-rule="evenodd" d="M11.5027 48.2107C11.6573 39.2311 18.9841 32 28.0002 32C37.0164 32 44.3433 39.2315 44.4977 48.2113C44.5079 48.8068 44.1648 49.352 43.6235 49.6004C38.8656 51.7836 33.5732 53 28.0008 53C22.4279 53 17.135 51.7834 12.3768 49.5998C11.8355 49.3514 11.4924 48.8062 11.5027 48.2107Z" fill="#657686"/>
</svg>
