<svg width="24" height="24" viewBox="0 0 24 24" fill="none" xmlns="http://www.w3.org/2000/svg">
<path d="M3.16102 4.47001C4.32095 3.30959 5.87682 2.63077 7.51642 2.56975C9.15601 2.50873 10.758 3.07002 12.001 4.14101C13.2428 3.07168 14.8426 2.51084 16.4802 2.57077C18.1179 2.6307 19.6724 3.30698 20.8327 4.46421C21.993 5.62145 22.6733 7.17423 22.7375 8.8117C22.8017 10.4492 22.2451 12.0505 21.179 13.295L13.414 21.086C13.0573 21.4429 12.5788 21.6517 12.0745 21.6706C11.5703 21.6895 11.0775 21.5172 10.695 21.188L10.585 21.086L2.82102 13.296C1.75522 12.0525 1.19813 10.4524 1.26117 8.81588C1.32421 7.17932 2.00272 5.62787 3.16102 4.47001ZM4.57502 5.88301C3.75697 6.70104 3.28539 7.8027 3.25821 8.95927C3.23102 10.1158 3.65031 11.2384 4.42902 12.094L4.57502 12.247L12 19.672L17.303 14.368L13.768 10.833L12.708 11.893C12.4295 12.1717 12.0988 12.3927 11.7348 12.5436C11.3708 12.6945 10.9807 12.7722 10.5867 12.7723C9.79101 12.7724 9.02781 12.4565 8.46502 11.894C7.90223 11.3315 7.58595 10.5684 7.58576 9.77271C7.58557 8.977 7.90149 8.2138 8.46402 7.65101L10.566 5.54901C9.7296 4.88125 8.68261 4.53339 7.61289 4.56784C6.54316 4.6023 5.52073 5.01681 4.72902 5.73701L4.57502 5.88301ZM13.061 8.71201C13.2485 8.52454 13.5029 8.41922 13.768 8.41922C14.0332 8.41922 14.2875 8.52454 14.475 8.71201L18.717 12.954L19.425 12.247C20.2565 11.4161 20.7298 10.2929 20.7438 9.11757C20.7579 7.94221 20.3114 6.80802 19.5 5.95756C18.6886 5.1071 17.5767 4.60788 16.402 4.56666C15.2272 4.52544 14.083 4.9455 13.214 5.73701L13.061 5.88301L9.87902 9.06501C9.70569 9.23822 9.60199 9.46905 9.58761 9.71367C9.57323 9.95829 9.64917 10.1997 9.80102 10.392L9.87902 10.48C10.0524 10.6532 10.2833 10.7567 10.5279 10.7709C10.7725 10.7851 11.0138 10.709 11.206 10.557L11.293 10.48L13.061 8.71201Z" fill="#7F7F81"/>
</svg>
